<?xml version="1.0" standalone="no"?>
<!DOCTYPE svg PUBLIC "-//W3C//DTD SVG 20010904//EN"
 "http://www.w3.org/TR/2001/REC-SVG-20010904/DTD/svg10.dtd">
<svg version="1.0" xmlns="http://www.w3.org/2000/svg"
 width="608.000000pt" height="232.000000pt" viewBox="0 0 608.000000 232.000000"
 preserveAspectRatio="xMidYMid meet">

<g transform="translate(0.000000,232.000000) scale(0.100000,-0.100000)"
fill="#000000" stroke="none">
<path d="M520 1730 c0 -63 2 -70 20 -70 16 0 20 7 20 37 l0 38 89 -89 c81 -81
111 -98 111 -63 0 7 -36 48 -80 92 l-81 80 33 5 c21 3 34 11 36 23 3 15 -6 17
-72 17 l-76 0 0 -70z"/>
<path d="M1101 1756 c-40 -40 -47 -66 -19 -66 7 0 22 10 35 22 l23 21 0 -72
c0 -64 2 -72 18 -69 13 2 18 17 22 67 4 56 7 62 19 48 15 -19 37 -22 47 -6 7
12 -73 99 -91 99 -6 0 -30 -20 -54 -44z"/>
<path d="M1650 1780 c0 -16 7 -20 32 -20 l33 0 -84 -84 c-74 -74 -83 -87 -71
-101 12 -14 23 -6 102 72 l88 88 0 -38 c0 -30 4 -37 20 -37 18 0 20 7 20 70
l0 70 -70 0 c-63 0 -70 -2 -70 -20z"/>
<path d="M825 1541 c-49 -20 -50 -25 -53 -345 -2 -166 0 -316 3 -334 3 -18 15
-42 26 -53 18 -18 36 -19 389 -19 l370 0 -2 378 -3 377 -355 2 c-195 1 -364
-2 -375 -6z m695 -76 l0 -45 -338 0 c-355 0 -362 1 -362 45 0 44 7 45 362 45
l338 0 0 -45z m-339 -85 l339 0 0 -65 0 -65 -100 0 c-116 0 -156 -13 -190 -60
-46 -64 -36 -143 25 -200 24 -23 36 -25 143 -30 l117 -5 3 -62 3 -63 -346 0
-345 0 -10 26 c-6 14 -10 139 -10 281 0 229 2 255 16 249 9 -3 168 -6 355 -6z
m339 -275 l0 -105 -109 0 -109 0 -32 37 c-28 31 -31 42 -27 75 6 42 29 75 62
89 11 4 64 8 118 8 l97 1 0 -105z"/>
<path d="M990 1252 c0 -11 -11 -24 -25 -30 -34 -16 -49 -57 -35 -93 12 -27 44
-46 90 -51 19 -2 25 -9 25 -28 0 -21 -5 -26 -32 -28 -24 -2 -35 2 -45 17 -15
25 -48 28 -48 5 0 -9 16 -31 35 -50 19 -18 35 -40 35 -49 0 -25 34 -14 38 13
2 12 8 22 13 22 5 0 18 9 29 20 43 43 11 120 -49 120 -40 0 -64 25 -51 51 14
25 56 25 72 -1 7 -11 21 -20 30 -20 29 0 21 37 -12 62 -16 12 -30 30 -30 40 0
11 -7 18 -20 18 -13 0 -20 -7 -20 -18z"/>
<path d="M1322 1159 c-25 -9 -42 -45 -34 -69 17 -50 67 -65 102 -30 47 47 -4
123 -68 99z m43 -59 c0 -22 -29 -18 -33 3 -3 14 1 18 15 15 10 -2 18 -10 18
-18z"/>
<path d="M4820 1230 c0 -173 1 -180 20 -180 19 0 20 7 20 180 0 173 -1 180
-20 180 -19 0 -20 -7 -20 -180z"/>
<path d="M1910 1215 l0 -165 94 0 c74 0 95 3 100 15 4 13 -8 15 -74 15 l-80 0
0 60 0 59 62 3 c50 2 63 6 66 21 3 15 -5 17 -62 17 l-66 0 0 50 0 50 75 0 c68
0 75 2 75 20 0 19 -7 20 -95 20 l-95 0 0 -165z"/>
<path d="M3847 1373 c-4 -3 -7 -12 -7 -20 0 -9 16 -13 55 -13 l55 0 0 -145 c0
-138 1 -145 20 -145 19 0 20 7 20 145 l0 145 55 0 c30 0 55 2 55 4 0 2 3 11 6
20 5 14 -9 16 -123 16 -71 0 -133 -3 -136 -7z"/>
<path d="M2166 1278 c5 -7 23 -34 42 -61 l34 -47 -41 -55 c-23 -30 -41 -57
-41 -60 0 -3 9 -5 19 -5 12 0 31 19 51 50 l33 51 31 -51 c22 -36 37 -50 53
-50 13 0 23 2 23 5 0 3 -19 30 -41 61 l-42 54 29 41 c62 86 59 79 35 79 -15 0
-31 -15 -53 -50 l-31 -50 -31 50 c-22 37 -37 50 -54 50 -16 0 -21 -4 -16 -12z"/>
<path d="M2434 1277 c-2 -7 -3 -89 -2 -182 3 -151 5 -170 20 -173 14 -3 17 7
20 58 l3 62 47 2 c118 5 178 138 98 218 -34 33 -70 36 -115 8 l-33 -20 -5 20
c-6 22 -25 27 -33 7z m161 -50 c21 -30 19 -90 -5 -120 -24 -30 -60 -40 -95
-27 -25 9 -26 13 -23 77 3 66 4 69 36 84 38 20 67 15 87 -14z"/>
<path d="M2785 1280 c-66 -27 -95 -125 -56 -187 27 -43 85 -61 141 -44 53 16
53 38 0 33 -59 -6 -88 5 -105 38 -8 16 -15 31 -15 35 0 3 38 5 85 5 l85 0 0
36 c0 67 -70 111 -135 84z m75 -40 c38 -38 27 -50 -44 -50 -60 0 -64 1 -59 20
6 24 40 50 65 50 10 0 27 -9 38 -20z"/>
<path d="M2990 1170 c0 -113 1 -120 20 -120 17 0 19 8 22 87 3 86 3 87 36 106
30 18 34 18 57 3 24 -16 25 -22 25 -106 0 -83 1 -90 20 -90 19 0 20 7 20 100
0 87 -3 103 -20 120 -26 26 -66 25 -108 0 l-34 -21 -5 21 c-3 11 -12 20 -19
20 -11 0 -14 -24 -14 -120z"/>
<path d="M3308 1275 c-30 -17 -44 -51 -34 -83 4 -12 26 -27 59 -38 38 -14 53
-25 55 -41 5 -32 -29 -47 -75 -34 -27 8 -39 7 -44 -1 -4 -7 -6 -15 -3 -20 9
-15 73 -20 108 -8 41 13 59 39 54 78 -3 27 -19 38 -85 63 -64 23 -33 76 38 64
36 -6 40 -5 37 11 -4 25 -72 30 -110 9z"/>
<path d="M3548 1274 c-61 -33 -79 -138 -32 -193 30 -36 75 -47 132 -31 62 16
54 36 -13 32 -47 -3 -57 -1 -80 22 -45 45 -35 56 54 56 44 0 83 4 86 10 11 17
-15 89 -38 105 -27 19 -74 19 -109 -1z m87 -39 c38 -37 32 -45 -40 -45 -39 0
-65 4 -65 10 0 17 47 60 65 60 9 0 27 -11 40 -25z"/>
<path d="M4130 1170 c0 -113 1 -120 20 -120 18 0 20 7 20 71 0 65 2 73 29 100
16 16 39 29 50 29 14 0 21 6 21 20 0 35 -44 25 -79 -17 l-31 -38 0 38 c0 26
-4 37 -15 37 -12 0 -15 -20 -15 -120z"/>
<path d="M4349 1279 c-20 -7 -26 -15 -22 -29 5 -18 7 -18 39 -3 44 21 84 6 84
-32 0 -20 -5 -25 -25 -25 -90 0 -146 -79 -94 -131 24 -24 69 -21 99 6 21 19
30 19 30 1 0 -21 17 -29 46 -22 25 7 34 36 10 36 -20 0 -26 23 -26 105 0 65
-3 76 -22 89 -25 18 -79 20 -119 5z m101 -149 c0 -31 -22 -50 -59 -50 -17 0
-41 26 -41 44 0 16 36 36 66 36 31 0 34 -3 34 -30z"/>
<path d="M4632 1270 c-64 -39 -80 -144 -31 -196 28 -30 80 -40 119 -24 43 18
38 36 -9 32 -52 -5 -78 11 -91 56 -14 46 -2 84 36 108 21 15 31 16 56 6 23 -8
30 -8 34 3 3 8 3 19 -1 25 -11 17 -78 11 -113 -10z"/>
<path d="M4934 1236 c-25 -30 -46 -57 -46 -61 0 -4 19 -33 43 -66 31 -43 49
-59 66 -59 13 0 23 3 23 6 0 3 -20 30 -45 58 -49 58 -52 67 -30 86 9 7 29 30
46 52 28 35 29 38 10 38 -12 0 -39 -22 -67 -54z"/>
<path d="M5123 1270 c-40 -24 -54 -50 -56 -104 -2 -55 17 -91 61 -112 37 -17
104 -13 129 8 23 19 14 23 -40 20 -42 -3 -58 1 -80 18 -15 12 -27 30 -27 41 0
17 8 19 80 19 l80 0 0 40 c0 78 -76 114 -147 70z m85 -26 c12 -8 22 -24 22
-35 0 -17 -7 -19 -60 -19 -68 0 -78 14 -34 49 32 25 43 26 72 5z"/>
<path d="M5347 1284 c-4 -4 -7 -58 -7 -121 0 -106 1 -113 20 -113 18 0 20 7
20 64 0 54 4 69 25 95 14 16 36 33 48 37 39 12 50 44 15 44 -28 -1 -50 -17
-69 -50 l-13 -25 -6 34 c-5 34 -19 48 -33 35z"/>
<path d="M562 1217 c-23 -23 -42 -47 -42 -53 0 -5 20 -30 45 -54 38 -37 46
-41 60 -30 14 12 14 15 -5 35 -11 12 -20 24 -20 28 0 4 29 7 65 7 58 0 65 2
65 20 0 18 -7 20 -67 20 l-66 0 21 23 c17 18 19 26 10 35 -17 17 -20 16 -66
-31z"/>
<path d="M1683 1245 c-3 -9 2 -24 12 -35 17 -18 16 -19 -36 -22 -42 -2 -55 -7
-57 -20 -3 -16 5 -18 59 -18 l62 0 -21 -23 c-24 -26 -28 -42 -11 -53 11 -7 99
73 99 90 0 12 -81 96 -92 96 -5 0 -11 -7 -15 -15z"/>
<path d="M1560 765 c-12 -14 -3 -26 68 -98 45 -45 82 -86 82 -90 0 -4 -13 -7
-30 -7 -23 0 -30 -4 -30 -20 0 -18 7 -20 70 -20 l70 0 0 75 c0 68 -2 75 -20
75 -16 0 -20 -7 -20 -37 l0 -38 -88 88 c-79 78 -90 86 -102 72z"/>
<path d="M642 688 l-82 -83 0 38 c0 31 -3 37 -20 37 -19 0 -21 -5 -18 -72 l3
-73 73 -3 c67 -3 72 -1 72 18 0 16 -6 20 -35 20 -19 0 -35 3 -35 7 0 4 37 44
81 89 74 75 90 104 56 104 -7 0 -49 -37 -95 -82z"/>
<path d="M1140 685 c0 -30 -3 -55 -7 -55 -4 0 -16 9 -28 20 -20 19 -23 19 -35
5 -11 -14 -7 -22 30 -60 24 -25 49 -45 55 -45 6 0 31 20 55 45 37 38 41 46 30
60 -12 14 -15 13 -37 -6 l-23 -22 0 56 c0 50 -2 57 -20 57 -18 0 -20 -7 -20
-55z"/>
</g>
</svg>
